<svg xmlns="http://www.w3.org/2000/svg" version="1.1" xmlns:xlink="http://www.w3.org/1999/xlink" xmlns:svgjs="http://svgjs.com/svgjs" width="1569" height="660" preserveAspectRatio="none" viewBox="0 0 1569 660"><g mask="url(&quot;#SvgjsMask1479&quot;)" fill="none"><rect width="1569" height="660" x="0" y="0" fill="rgba(15, 14, 23, 1)"></rect><path d="M0,595.76C131.836,613.985,282.054,684.85,390.979,608.375C500.508,531.476,470.02,361.146,514.129,234.795C553.139,123.047,637.153,27.012,635.243,-91.334C633.217,-216.916,575.303,-333.203,503.303,-436.115C425.365,-547.515,339.473,-674.729,206.681,-703.892C74.854,-732.842,-44.737,-630.466,-171.573,-584.325C-289.158,-541.55,-413.946,-521.748,-511.022,-442.803C-620.425,-353.833,-736.114,-248.3,-756.369,-108.749C-776.629,30.834,-696.604,165.541,-616.135,281.38C-544.724,384.18,-438.672,452.21,-327.178,509.099C-224.607,561.436,-114.067,579.992,0,595.76" fill="#0a090f"></path><path d="M1569 1202.175C1691.835 1190.565 1826.306 1288.568 1931.031 1223.3319999999999 2035.628 1158.176 2014.9560000000001 998.994 2071.194 889.344 2131.205 772.336 2259.814 689.9110000000001 2271.777 558.956 2284.584 418.769 2248.431 253.89600000000002 2137.117 167.724 2025.436 81.26800000000003 1863.013 155.296 1723.334 134.38800000000003 1608.681 117.226 1507.398 48.942999999999984 1391.692 56.14599999999996 1256.68 64.54999999999995 1112.551 86.54600000000005 1013.413 178.58100000000002 910.869 273.779 872.136 418.446 852.245 556.946 832.357 695.43 846.634 836.177 900.425 965.328 955.447 1097.435 1025.248 1248.411 1160.141 1296.1970000000001 1294.682 1343.859 1426.899 1215.606 1569 1202.175" fill="#14131f"></path></g><defs><mask id="SvgjsMask1479"><rect width="1569" height="660" fill="#ffffff"></rect></mask></defs></svg>